<?xml version="1.0" encoding="UTF-8"?>
<svg width="512px" height="512px" viewBox="0 0 512 512" version="1.1" xmlns="http://www.w3.org/2000/svg" xmlns:xlink="http://www.w3.org/1999/xlink">
    <!-- Generator: Sketch 47.1 (45422) - http://www.bohemiancoding.com/sketch -->
    <title>icon</title>
    <desc>Created with Sketch.</desc>
    <defs></defs>
    <g id="Page-1" stroke="none" stroke-width="1" fill="none" fill-rule="evenodd">
        <g id="icon">
            <g id="face" transform="translate(32.000000, 163.000000)">
                <path d="M420.169438,120.91597 C436.979762,147.322479 446.513208,174.658028 446.513208,198.480715 C446.513208,292.07295 346.557821,336.196465 223.256604,336.196465 C99.9553862,336.196465 -5.68434189e-14,298.983208 -5.68434189e-14,198.480715 C-5.48044298e-14,173.045661 10.9714406,143.48755 30.1283987,115.330204 C16.3853456,96.9600977 20.4125559,17.9822136 35.8889929,4.99594094 C51.6167483,-8.20121278 128.14851,6.96309029 140.260796,24.7371168 C165.917657,13.842668 193.926638,7.37319636 223.256604,7.37319636 C254.952931,7.37319636 285.106519,14.9045237 312.415978,27.4054783 C328.219978,10.4388208 400.136897,-3.27348432 415.328053,9.47340893 C431.140104,22.7412952 435.00098,104.893946 420.169438,120.91597 Z" id="Combined-Shape" fill="#969696"></path>
                <path d="M224.017774,251.78166 C216.589276,251.78166 208.51551,244.724468 203.578139,237.745074 C191.360466,220.474355 254.439071,218.391819 243.466185,237.745074 C239.428838,244.86588 231.446271,251.78166 224.017774,251.78166 Z" id="Path-6" fill="#FFFFFF"></path>
                <path d="M219.176452,250 L227.228825,250 L227.228825,266.968221 C243.60187,276.712539 260.005211,276.712539 276.438847,266.968221 C280.717709,266.968221 283.682304,267.02661 288.085714,266.968221 C273.326236,285.069172 251.920395,287.894461 223.868191,275.444089 C195.550496,288.226593 173.261167,285.401304 157.000207,266.968221 C156.940126,266.968221 169.981157,266.968221 169.981157,266.968221 C186.038498,277.169488 202.436929,277.169488 219.176452,266.968221 L219.176452,250 Z" id="Path-7" fill="#FFFFFF"></path>
            </g>
            <g id="monocle" transform="translate(277.000000, 266.000000)">
                <path d="M65.5,133 C29.3253489,133 0,103.226936 0,66.5 C0,29.7730641 29.3253489,0 65.5,0 C101.674651,0 131,29.7730641 131,66.5 C131,103.226936 101.674651,133 65.5,133 Z M65.5,120.129032 C94.6731057,120.129032 118.322581,96.1184967 118.322581,66.5 C118.322581,36.8815033 94.6731057,12.8709677 65.5,12.8709677 C36.3268943,12.8709677 12.6774194,36.8815033 12.6774194,66.5 C12.6774194,96.1184967 36.3268943,120.129032 65.5,120.129032 Z" id="Combined-Shape" fill="#EFE278"></path>
                <ellipse id="Oval-5-Copy-3" fill="#D5FAFF" cx="65.5" cy="66.5" rx="52.8225806" ry="53.6290323"></ellipse>
                <circle id="Oval-6" fill="#EFE278" cx="122" cy="112" r="9"></circle>
                <circle id="Oval-6-Copy" fill="#EFE278" cx="132" cy="126" r="8"></circle>
                <circle id="Oval-6-Copy-2" fill="#EFE278" cx="134" cy="142" r="8"></circle>
                <circle id="Oval-6-Copy-3" fill="#EFE278" cx="135" cy="158" r="8"></circle>
                <circle id="Oval-6-Copy-4" fill="#EFE278" cx="136" cy="174" r="8"></circle>
                <circle id="Oval-6-Copy-5" fill="#EFE278" cx="136" cy="190" r="8"></circle>
            </g>
            <g id="hat" transform="translate(16.000000, 18.000000)">
                <path d="M37.705334,220.6904 C36.7941057,191.791591 41.9965595,157.462993 51.7389259,149.288177 C57.8010181,144.201478 72.8975254,143.329645 89.8571429,145.197194 L89.8571429,28.0972222 C89.8571429,12.4317676 157.538897,0 241.028571,0 C324.518246,0 392.2,12.4317676 392.2,28.0972222 L392.2,149.77406 C409.513333,147.779351 425.026347,148.59261 431.192405,153.766547 C440.501477,161.577786 445.665484,193.268143 445.311438,221.283475 C467.942074,228.056407 481,236.036365 481,244.57963 C481,269.112323 373.324482,289 240.5,289 C107.675518,289 0,269.112323 0,244.57963 C0,235.785683 13.8354787,227.588585 37.705334,220.6904 Z" id="Combined-Shape" fill="#000000"></path>
                <path d="M241.028571,56.7296296 C324.518246,56.7296296 392.2,43.7626769 392.2,28.0972222 C392.2,12.4317676 324.518246,0 241.028571,0 C157.538897,0 89.8571429,12.4317676 89.8571429,28.0972222 C89.8571429,43.7626769 157.538897,56.7296296 241.028571,56.7296296 Z" id="Oval-5-Copy" fill="#2C2C2C"></path>
                <path d="M38.018493,220.734865 C189.590563,256.292344 305.021227,254.463586 445.64668,220.734865 C445.64668,220.734865 444.625948,186.073403 440.884979,172.641909 C289.526301,203.497282 204.639023,203.497282 41.5706257,172.641909 C38.018493,190.6148 38.018493,220.734865 38.018493,220.734865 Z" id="Path-5" fill="#9A1F47"></path>
            </g>
            <path d="M460.672253,290.236308 C474.82065,314.847387 482.513208,339.624817 482.513208,361.480715 C482.513208,407.887061 458.663928,444.403834 415.084174,468.92183 C374.962255,491.494447 319.137314,503.196465 255.256604,503.196465 C189.650261,503.196465 134.758003,492.799439 95.4864259,471.54485 C51.6020239,447.793704 28,410.978802 28,361.480715 C28,339.49251 35.8576035,314.472565 50.2819729,289.632007 C25.5102799,282.203842 12,273.435302 12,262.57963 C12,251.801873 25.2890069,243.11572 49.6310487,235.725375 C49.067561,204.16819 55.0629234,172.702977 65.1677754,164.224 C71.4720595,158.934077 84.6797173,157.335962 101.857143,158.788139 L101.857143,46.0972222 C101.857143,35.4140606 118.97533,27.8763098 149.405861,22.2409396 C177.774209,16.9874611 216.087194,14 257.028571,14 C297.969949,14 336.282934,16.9874611 364.651282,22.2409396 C395.081813,27.8763098 412.2,35.4140606 412.2,46.0972222 L412.2,163.341849 C429.784802,161.759307 443.354389,163.32444 449.763556,168.70237 C459.444015,176.82524 465.329886,205.78673 465.330063,236.332393 C488.410259,243.593249 501,252.081704 501,262.57963 C501,273.716904 486.754915,282.684793 460.672247,290.236294 L460.672253,290.236308 Z" id="outline" stroke="#FFFFFF" stroke-width="8"></path>
        </g>
    </g>
</svg>